<?xml version="1.0" encoding="utf-8"?>
<!-- Generator: Adobe Illustrator 26.2.1, SVG Export Plug-In . SVG Version: 6.00 Build 0)  -->
<svg version="1.1" id="Layer_1" xmlns="http://www.w3.org/2000/svg" xmlns:xlink="http://www.w3.org/1999/xlink" x="0px" y="0px"
	 width="32px" height="32px" viewBox="0 0 32 32" style="enable-background:new 0 0 32 32;" xml:space="preserve">
<path style="fill:#007ACC;" d="M0,16v16h32V0H0V16z"/>
<path style="fill-rule:evenodd;clip-rule:evenodd;fill:#FFFFFF;" d="M21.4,3.3L18.5,7L19,7.5C16.6,9.9,13.2,10,10,10
	C8.8,16,6.8,21.9,4.8,27.8c5.7-2,11.3-4.1,17.3-5.3c0-3.3,0.1-6.7,2.4-9.3l0.5,0.5l4.3-2.9L21.4,3.3z M15.5,19c-1.2,0-2.3-1-2.3-2.3
	c0-1.2,1-2.3,2.3-2.3c1.2,0,2.3,1,2.3,2.3C17.7,17.9,16.7,19,15.5,19z"/>
</svg>
